#!OML:ASF G:\ViconDB\ViconDB\414\test\team2\shane.ASF
:FULLY-SPECIFIED
:DEGREES
150
root 3.76736 16.9045 -17.4219 -4.21419 7.89951 -6.75318
lowerback 11.0748 -0.392084 4.08237
upperback 5.67472 -0.0832595 1.76267
thorax -0.288954 0.0228311 -0.459055
lowerneck -19.9635 -0.463088 -4.99786
upperneck 13.3772 -0.456536 6.8727
head 7.40531 0.193242 3.03758
rclavicle -9.34288e-015 -2.38542e-015
rhumerus -73.2952 6.5555 -99.9273
rradius 28.9234
rwrist 39.939
rhand -15.0613 -5.29002
rfingers 7.12502
rthumb 11.1056 -34.9762
lclavicle -2.13694e-014 -1.80894e-014
lhumerus -59.1542 -13.5624 100.762
lradius 19.5709
lwrist -24.719
lhand -30.3353 5.8509
lfingers 7.12502
lthumb -3.64126 35.7995
rfemur -0.685993 -11.6477 18.0085
rtibia 40.7467
rfoot -12.6442 -8.12407
rtoes -15.1206
lfemur -5.87537 10.4199 -0.800666
ltibia 45.6014
lfoot -20.2356 -7.42465
ltoes -12.6332
151
root 3.75704 17.0049 -17.3997 -4.19092 7.93083 -6.52822
lowerback 10.5828 -0.353762 3.9923
upperback 5.82987 -0.0754401 1.68227
thorax 0.14009 0.0345266 -0.49366
lowerneck -20.5504 -0.507153 -4.93085
upperneck 13.8388 -0.517374 6.78748
head 7.66008 0.170347 3.00428
rclavicle -9.34288e-015 -2.38542e-015
rhumerus -73.2952 6.5555 -99.9273
rradius 28.9234
rwrist 39.939
rhand -15.0613 -5.29002
rfingers 7.12502
rthumb 11.1056 -34.9762
lclavicle -2.13694e-014 -1.80894e-014
lhumerus -59.1542 -13.5624 100.762
lradius 19.5709
lwrist -24.719
lhand -30.3353 5.8509
lfingers 7.12502
lthumb -3.64126 35.7995
rfemur 0.115482 -10.8998 17.9714
rtibia 38.9408
rfoot -11.3323 -8.15728
rtoes -14.8243
lfemur -5.76786 10.1607 -1.36717
ltibia 45.1311
lfoot -18.7187 -6.56022
ltoes -9.49331
152
root 3.74993 17.0943 -17.3809 -4.31875 8.02372 -6.51532
lowerback 10.2426 -0.333423 4.01483
upperback 5.99442 -0.0705847 1.74488
thorax 0.497501 0.0441421 -0.442261
lowerneck -20.9667 -0.561487 -4.87495
upperneck 14.1577 -0.571101 6.60499
head 7.83879 0.13681 2.9363
rclavicle -9.34288e-015 -2.38542e-015
rhumerus -73.2952 6.5555 -99.9273
rradius 28.9234
rwrist 39.939
rhand -15.0613 -5.29002
rfingers 7.12502
rthumb 11.1056 -34.9762
lclavicle -2.13694e-014 -1.80894e-014
lhumerus -59.1542 -13.5624 100.762
lradius 19.5709
lwrist -24.719
lhand -30.3353 5.8509
lfingers 7.12502
lthumb -3.64126 35.7995
rfemur 1.00147 -10.2557 18.0977
rtibia 37.2133
rfoot -10.0501 -8.20306
rtoes -14.8428
lfemur -5.54677 9.7344 -1.7525
ltibia 44.5407
lfoot -17.5848 -5.64199
ltoes -6.78728
153
root 3.74422 17.1718 -17.3635 -4.33931 8.05129 -6.53026
lowerback 10.4374 -0.344291 4.1756
upperback 5.64972 -0.048407 1.69584
thorax 0.0331565 0.0480352 -0.585533
lowerneck -20.8199 -0.570182 -4.83204
upperneck 14.6134 -0.634278 6.67411
head 7.97042 0.11577 2.95123
rclavicle -9.34288e-015 -2.38542e-015
rhumerus -73.2952 6.5555 -99.9273
rradius 28.9234
rwrist 39.939
rhand -15.0613 -5.29002
rfingers 7.12502
rthumb 11.1056 -34.9762
lclavicle -2.13694e-014 -1.80894e-014
lhumerus -59.1542 -13.5624 100.762
lradius 19.5709
lwrist -24.719
lhand -30.3353 5.8509
lfingers 7.12502
lthumb -3.64126 35.7995
rfemur 1.81488 -9.58774 18.2418
rtibia 35.4949
rfoot -8.9001 -8.1004
rtoes -14.6422
lfemur -5.37313 9.58317 -2.06499
ltibia 43.8325
lfoot -17.3982 -5.41097
ltoes -5.27548
154
root 3.74858 17.251 -17.3413 -4.37721 8.08119 -6.42431
lowerback 10.2304 -0.3701 4.18214
upperback 5.64684 -0.0932824 1.76948
thorax 0.141227 0.0264223 -0.50886
lowerneck -21.1335 -0.566548 -4.99363
upperneck 14.9966 -0.581948 6.65875
head 8.14897 0.135338 2.9891
rclavicle -9.34288e-015 -2.38542e-015
rhumerus -73.2952 6.5555 -99.9273
rradius 28.9234
rwrist 39.939
rhand -15.0613 -5.29002
rfingers 7.12502
rthumb 11.1056 -34.9762
lclavicle -2.13694e-014 -1.80894e-014
lhumerus -59.1542 -13.5624 100.762
lradius 19.5709
lwrist -24.719
lhand -30.3353 5.8509
lfingers 7.12502
lthumb -3.64126 35.7995
rfemur 2.67407 -9.1243 18.0959
rtibia 33.7971
rfoot -7.8921 -7.72909
rtoes -13.9386
lfemur -5.12633 9.29595 -2.66448
ltibia 42.8753
lfoot -18.2561 -5.40229
ltoes -5.608
155
root 3.75076 17.322 -17.3225 -4.2886 8.18225 -6.38487
lowerback 8.38076 -0.346871 4.23547
upperback 6.74328 -0.207636 1.78996
thorax 2.2965 0.0192016 -0.509376
lowerneck -22.4173 -0.646053 -4.85508
upperneck 14.6081 -0.635647 6.50916
head 8.23824 0.120379 2.9139
rclavicle -9.34288e-015 -2.38542e-015
rhumerus -73.2952 6.5555 -99.9273
rradius 28.9234
rwrist 39.939
rhand -15.0613 -5.29002
rfingers 7.12502
rthumb 11.1056 -34.9762
lclavicle -2.13694e-014 -1.80894e-014
lhumerus -59.1542 -13.5624 100.762
lradius 19.5709
lwrist -24.719
lhand -30.3353 5.8509
lfingers 7.12502
lthumb -3.64126 35.7995
rfemur 3.41119 -8.77696 18.0824
rtibia 32.0544
rfoot -6.94059 -7.48778
rtoes -13.7507
lfemur -5.12572 9.27292 -3.13579
ltibia 41.7857
lfoot -19.736 -6.01878
ltoes -7.64674
156
root 3.75608 17.3753 -17.3017 -4.25994 8.2514 -6.31968
lowerback 9.80649 -0.37777 4.31632
upperback 5.4568 -0.110397 1.78833
thorax 0.174183 0.0186489 -0.564006
lowerneck -21.1625 -0.575595 -4.74405
upperneck 15.2654 -0.629419 6.40379
head 8.2458 0.102039 2.85998
rclavicle -9.34288e-015 -2.38542e-015
rhumerus -73.2952 6.5555 -99.9273
rradius 28.9234
rwrist 39.939
rhand -15.0613 -5.29002
rfingers 7.12502
rthumb 11.1056 -34.9762
lclavicle -2.13694e-014 -1.80894e-014
lhumerus -59.1542 -13.5624 100.762
lradius 19.5709
lwrist -24.719
lhand -30.3353 5.8509
lfingers 7.12502
lthumb -3.64126 35.7995
rfemur 4.29492 -8.56109 17.9726
rtibia 30.2896
rfoot -6.16219 -7.20198
rtoes -13.6751
lfemur -4.9546 9.33754 -3.65585
ltibia 40.4857
lfoot -20.8057 -6.88274
ltoes -9.06944
